<svg xmlns="http://www.w3.org/2000/svg" width="97.5mm" height="35mm" viewBox="-17.5 0 97.5 35">

<path d="M 0 0 h 80 v 35 h -80 a 17.5 17.5 0 0 1 0 -35 z M -5.05 17.5 m -2.5 0 a 2.5 2.5 0 1 1 5 0 a 2.5 2.5 0 1 1 -5 0 z" fill="none" stroke="black" stroke-width="0.1" />
<g  transform="translate(0, 0)">
<path d="M16.268803654406554 7.007442703000708V15.933173190517444H13.947782940852171V7.007442703000708Z" />
<path d="M19.33409466803182 8.617271796487358 19.29550287469481 9.311924076553517Q19.554619201386156 8.898440576514137 19.912971568086952 8.691698826494447Q20.27132393478775 8.484957076474757 20.728912341497992 8.484957076474757Q21.622036701583053 8.484957076474757 22.134756241631884 9.311924076553517Q22.415925021658662 8.898440576514137 22.768764275025596 8.691698826494447Q23.121603528392534 8.484957076474757 23.55162636843349 8.484957076474757Q24.119477041820904 8.484957076474757 24.491612191856348 8.760612743167677Q24.863747341891788 9.036268409860597 24.968496495235097 9.435969126565329Q25.073245648578407 9.835669843270063 25.073245648578407 10.73430731668898V15.933173190517444H22.912105221705914V11.164330156729935Q22.912105221705914 10.227100889974007 22.848704418366545 10.003819799952744Q22.785303615027175 9.780538709931479 22.553752855005122 9.780538709931479Q22.31668898164921 9.780538709931479 22.247775064975983 10.001063243285813Q22.17886114830275 10.221587776640149 22.17886114830275 11.164330156729935V15.933173190517444H20.017720721430262V11.28561865007482Q20.017720721430262 10.210561549972432 19.965346144758605 9.995550129951955Q19.912971568086952 9.780538709931479 19.67590769473104 9.780538709931479Q19.527053634716864 9.780538709931479 19.422304481373555 9.893557533275576Q19.317555328030245 10.006576356619671 19.30652910136253 10.169213199968494Q19.29550287469481 10.331850043317317 19.29550287469481 10.861108923367723V15.933173190517444H17.134362447822323V8.617271796487358Z" />
<path d="M28.10545798220052 8.617271796487358 28.06686618886351 9.262306056548791Q28.364574308891864 8.870875009844845 28.72292667559266 8.6779160431598Q29.081279042293453 8.484957076474757 29.505788769000553 8.484957076474757Q30.02402142238324 8.484957076474757 30.401669685752537 8.763369299834606Q30.77931794912184 9.041781523194455 30.873040875797432 9.40564700322911Q30.966763802473025 9.769512483263762 30.966763802473025 10.640584390013387V13.722414743640229Q30.966763802473025 14.720288257068598 30.84823186579507 15.142041427108765Q30.729699929117114 15.56379459714893 30.363077892415532 15.814641253839488Q29.996455855713947 16.065487910530045 29.478223202331257 16.065487910530045Q29.06473970229188 16.065487910530045 28.711900448924943 15.872528943845001Q28.359061195558006 15.679569977159957 28.06686618886351 15.299165157123728V16.97515161061668H25.83956840198472V8.617271796487358ZM28.739466015594235 10.745333543356697Q28.739466015594235 10.067220603292114 28.68984799558951 9.923879656611795Q28.640229975584784 9.780538709931479 28.41419232889659 9.780538709931479Q28.193667795542254 9.780538709931479 28.130266992202884 9.945932109947229Q28.06686618886351 10.111325509962981 28.06686618886351 10.745333543356697V13.777545876978813Q28.06686618886351 14.43911947704182 28.13302354886981 14.604512877057571Q28.199180908876112 14.769906277073323 28.41970544223045 14.769906277073323Q28.634716862250926 14.769906277073323 28.68709143892258 14.618295660392217Q28.739466015594235 14.466685043711111 28.739466015594235 13.882295030322123Z" />
<path d="M33.92730566275498 8.617271796487358 33.83909584941325 9.576553516578718Q34.32424982279279 8.5456013231472 35.244939749547136 8.484957076474757V11.059581003386626Q34.63298416948886 11.059581003386626 34.34630227612822 11.224974403402378Q34.059620382767584 11.39036780341813 33.99346302276128 11.685319366779552Q33.92730566275498 11.980270930140977 33.92730566275498 13.044301803575646V15.933173190517444H31.700007875876192V8.617271796487358Z" />
<path d="M40.78561865007482 12.404780656848073H37.902260376466884V13.987044183665432Q37.902260376466884 14.483224383712686 37.97393084980704 14.626565330393005Q38.045601323147196 14.769906277073323 38.24958651649996 14.769906277073323Q38.503189729857446 14.769906277073323 38.58864298653225 14.579703867055208Q38.67409624320705 14.389501457037094 38.67409624320705 13.843703236985114V12.878908403559894H40.78561865007482V13.419193510278017Q40.78561865007482 14.0973064503426 40.70016539340001 14.461171930377255Q40.61471213672521 14.825037410411907 40.300464676695285 15.238520910451285Q39.98621721666535 15.652004410490665 39.503819799952744 15.858746160510355Q39.021422383240136 16.065487910530045 38.29369142317083 16.065487910530045Q37.58801291643695 16.065487910530045 37.04772780971883 15.861502717177284Q36.507442703000706 15.657517523824524 36.20697802630542 15.301921713790659Q35.906513349610144 14.946325903756792 35.79073796959912 14.519059620382766Q35.67496258958809 14.091793337008742 35.67496258958809 13.275852563597699V11.142277703394502Q35.67496258958809 10.18299598330314 35.93407891627943 9.628928093250373Q36.19319524297078 9.074860203197606 36.78309836969363 8.779908639836181Q37.37300149641648 8.484957076474757 38.13932424982279 8.484957076474757Q39.07655351657872 8.484957076474757 39.68575253997007 8.840552886508624Q40.29495156336142 9.19614869654249 40.540285106718116 9.783295266598408Q40.78561865007482 10.370441836654326 40.78561865007482 11.434472710088997ZM38.55280774986217 11.213948176734661V10.679176183350396Q38.55280774986217 10.111325509962981 38.49216350318973 9.945932109947229Q38.431519256517284 9.780538709931479 38.2440734031661 9.780538709931479Q38.012522643144045 9.780538709931479 37.95739150980546 9.921123099944868Q37.902260376466884 10.061707489958255 37.902260376466884 10.679176183350396V11.213948176734661Z" />
<path d="M46.0616681105773 10.954831850043316H44.087973537055994V10.557887690005511Q44.087973537055994 10.050681263290539 44.03008584705048 9.91560998661101Q43.972198157044964 9.780538709931479 43.74064739702291 9.780538709931479Q43.55320154367173 9.780538709931479 43.45947861699614 9.904583759943293Q43.36575569032055 10.028628809955105 43.36575569032055 10.276718909978733Q43.36575569032055 10.613018823344095 43.412617153658346 10.77014255335906Q43.45947861699614 10.927266283374024 43.69378593368512 11.11471213672521Q43.9280932503741 11.302157990076395 44.655824210443406 11.660510356777191Q45.626132157202484 12.134638103489012 45.9293533905647 12.55363471686225Q46.23257462392691 12.972631330235487 46.23257462392691 13.772032763644955Q46.23257462392691 14.665157123730014 46.001023863904855 15.119988973773332Q45.7694731038828 15.574820823816648 45.22643144049775 15.820154367173346Q44.6833897771127 16.065487910530045 43.91706702370638 16.065487910530045Q43.068047570292194 16.065487910530045 42.4643616602347 15.800858470504842Q41.8606757501772 15.536229030479639 41.63463810348901 15.08415373710325Q41.40860045680081 14.632078443726863 41.40860045680081 13.71690163030637V13.364062376939433H43.38229503032212V13.827163896983539Q43.38229503032212 14.417067023706386 43.45672206032921 14.593486650389854Q43.5311490903363 14.769906277073323 43.751673623690635 14.769906277073323Q43.98873749704654 14.769906277073323 44.08246042372214 14.651374340395368Q44.17618335039773 14.532842403717412 44.17618335039773 14.152437583681182Q44.17618335039773 13.628691816964636 44.054894857052844 13.496377096952035Q43.9280932503741 13.364062376939433 42.75931322359612 12.713515003544142Q41.77797905016933 12.162203670158304 41.56296763014885 11.712884933448844Q41.34795621012837 11.263566196739387 41.34795621012837 10.646097503347246Q41.34795621012837 9.769512483263762 41.579506970150426 9.353272426557453Q41.81105773017248 8.937032369851146 42.36512562022524 8.710994723162951Q42.91919351027801 8.484957076474757 43.65243758368118 8.484957076474757Q44.380168543750486 8.484957076474757 44.89013152713239 8.669646373159013Q45.40009451051429 8.85433566984327 45.67299362054028 9.157556903205482Q45.94589273056627 9.460778136567692 46.003780420571786 9.719894463259035Q46.0616681105773 9.97901078995038 46.0616681105773 10.53032212333622Z" />
<path d="M51.376309364416784 10.954831850043316H49.402614790895484V10.557887690005511Q49.402614790895484 10.050681263290539 49.34472710088997 9.91560998661101Q49.286839410884454 9.780538709931479 49.05528865086241 9.780538709931479Q48.867842797511216 9.780538709931479 48.77411987083563 9.904583759943293Q48.68039694416004 10.028628809955105 48.68039694416004 10.276718909978733Q48.68039694416004 10.613018823344095 48.72725840749783 10.77014255335906Q48.77411987083563 10.927266283374024 49.0084271875246 11.11471213672521Q49.24273450421359 11.302157990076395 49.970465464282896 11.660510356777191Q50.940773411041974 12.134638103489012 51.24399464440418 12.55363471686225Q51.5472158777664 12.972631330235487 51.5472158777664 13.772032763644955Q51.5472158777664 14.665157123730014 51.315665117744345 15.119988973773332Q51.08411435772229 15.574820823816648 50.541072694337245 15.820154367173346Q49.99803103095219 16.065487910530045 49.23170827754587 16.065487910530045Q48.382688824131684 16.065487910530045 47.779002914074184 15.800858470504842Q47.17531700401669 15.536229030479639 46.94927935732849 15.08415373710325Q46.7232417106403 14.632078443726863 46.7232417106403 13.71690163030637V13.364062376939433H48.69693628416161V13.827163896983539Q48.69693628416161 14.417067023706386 48.771363314168696 14.593486650389854Q48.84579034417578 14.769906277073323 49.06631487753012 14.769906277073323Q49.30337875088603 14.769906277073323 49.39710167756162 14.651374340395368Q49.49082460423722 14.532842403717412 49.49082460423722 14.152437583681182Q49.49082460423722 13.628691816964636 49.369536110892334 13.496377096952035Q49.24273450421359 13.364062376939433 48.07395447743561 12.713515003544142Q47.09262030400882 12.162203670158304 46.877608883988344 11.712884933448844Q46.66259746396786 11.263566196739387 46.66259746396786 10.646097503347246Q46.66259746396786 9.769512483263762 46.894148223989916 9.353272426557453Q47.12569898401197 8.937032369851146 47.67976687406474 8.710994723162951Q48.2338347641175 8.484957076474757 48.967078837520674 8.484957076474757Q49.694809797589976 8.484957076474757 50.20477278097188 8.669646373159013Q50.71473576435378 8.85433566984327 50.98763487437977 9.157556903205482Q51.26053398440576 9.460778136567692 51.31842167441127 9.719894463259035Q51.376309364416784 9.97901078995038 51.376309364416784 10.53032212333622Z" />
<path d="M54.43608726470819 7.007442703000708V8.170709616444828H52.142632117823105V7.007442703000708ZM54.43608726470819 8.617271796487358V15.933173190517444H52.142632117823105V8.617271796487358Z" />
<path d="M60.27447428526423 11.186382610065369V12.978144443569345Q60.27447428526423 13.964991730329999 60.17523824525478 14.425336693707173Q60.07600220524533 14.88568165708435 59.75072851854769 15.285382373789083Q59.42545483185004 15.685083090493816 58.915491848468136 15.87528550051193Q58.40552886508624 16.065487910530045 57.74395526502323 16.065487910530045Q57.005198078286206 16.065487910530045 56.49247853823738 15.902851067181222Q55.979758998188544 15.7402142238324 55.69583366149484 15.412183980467827Q55.41190832480113 15.084153737103252 55.29061983145625 14.618295660392217Q55.16933133811136 14.152437583681182 55.16933133811136 13.220721430259115V11.346262896747263Q55.16933133811136 10.326336929983459 55.3898558714657 9.752973143262187Q55.610380404820035 9.179609356540915 56.18374419154131 8.832283216507836Q56.75710797826258 8.484957076474757 57.650232338347635 8.484957076474757Q58.40001575175238 8.484957076474757 58.93754430180357 8.708238166496022Q59.47507285185477 8.931519256517287 59.76726785854926 9.289871623218083Q60.05946286524376 9.648223989918877 60.166968575253996 10.028628809955105Q60.27447428526423 10.409033629991335 60.27447428526423 11.186382610065369ZM58.04717649838544 10.635071276679529Q58.04717649838544 10.072733716625972 57.986532251713 9.926636213278726Q57.925888005040555 9.780538709931479 57.72741592502165 9.780538709931479Q57.52894384500275 9.780538709931479 57.46278648499646 9.926636213278726Q57.396629124990156 10.072733716625972 57.396629124990156 10.635071276679529V13.937426163660707Q57.396629124990156 14.455658817043394 57.46278648499646 14.612782547058359Q57.52894384500275 14.769906277073323 57.7219028116878 14.769906277073323Q57.9203748917067 14.769906277073323 57.98377569504607 14.626565330393005Q58.04717649838544 14.483224383712686 58.04717649838544 14.009096637000866Z" />
<path d="M63.273607938883195 8.617271796487358 63.23501614554618 9.289871623218083Q63.47759313223595 8.88741434984642 63.82767582893596 8.686185713160588Q64.17775852563597 8.484957076474757 64.63534693234622 8.484957076474757Q65.2087107190675 8.484957076474757 65.57257619910214 8.755099629833818Q65.9364416791368 9.02524218319288 66.04119083248011 9.435969126565329Q66.14593998582342 9.84669606993778 66.14593998582342 10.80597779002914V15.933173190517444H63.918642198944625V10.866622036701582Q63.918642198944625 10.111325509962981 63.869024178939895 9.945932109947229Q63.81940615893517 9.780538709931479 63.59336851224698 9.780538709931479Q63.35630463889107 9.780538709931479 63.29566039221862 9.970741119949594Q63.23501614554618 10.160943529967707 63.23501614554618 10.987910530046467V15.933173190517444H61.0077183586674V8.617271796487358Z" />
</g>
<g  transform="translate(0, 0)">
<path d="M10.463495313853667 18.024848389383315V26.950578876900053H8.236197526974877V26.421319996849647Q7.91643695361109 26.75210679688115 7.563597700244152 26.917500196896903Q7.210758446877215 27.082893596912655 6.8248405135071275 27.082893596912655Q6.306607860124439 27.082893596912655 5.926203040088209 26.809994486886666Q5.545798220051981 26.537095376860673 5.438292510041743 26.178743010159877Q5.330786800031504 25.82039064345908 5.330786800031504 25.0099629833819V21.586319603055838Q5.330786800031504 20.742813262975503 5.438292510041743 20.389974009608565Q5.545798220051981 20.03713475624163 5.931716153422068 19.7697487595495Q6.317634086792156 19.502362762857366 6.8524060801764195 19.502362762857366Q7.265889580215799 19.502362762857366 7.6104591635819485 19.651216822871543Q7.9550287469480985 19.80007088288572 8.236197526974877 20.097779002914073V18.024848389383315ZM8.236197526974877 21.47605733637867Q8.236197526974877 21.073600063007007 8.167283610301647 20.935772229660547Q8.098369693628417 20.797944396314087 7.894384500275656 20.797944396314087Q7.695912420256754 20.797944396314087 7.626998503583524 20.921989446325902Q7.558084586910294 21.046034496337715 7.558084586910294 21.47605733637867V25.059581003386626Q7.558084586910294 25.506143183429156 7.6242419469165945 25.646727573442544Q7.690399306922895 25.78731196345593 7.877845160274081 25.78731196345593Q8.092856580294558 25.78731196345593 8.164527053634718 25.63018823344097Q8.236197526974877 25.473064503426006 8.236197526974877 24.861108923367723Z" />
<path d="M11.356619673938727 20.897180436323538 11.064424667244232 19.3921004961802V18.024848389383315H12.751437347404899V19.3921004961802L12.497834134047414 20.897180436323538Z" />
<path d="M18.451996534614477 19.634677482869968V26.950578876900053H16.186106954398678L16.224698747735687 26.34413641017563Q15.993147987713634 26.713515003544142 15.654091517681342 26.8982043002284Q15.31503504764905 27.082893596912655 14.873985980940379 27.082893596912655Q14.372292667559266 27.082893596912655 14.041505867527762 26.906473970229186Q13.710719067496258 26.730054343545717 13.553595337481294 26.437859336851222Q13.396471607466331 26.145664330156727 13.357879814129323 25.82866031345987Q13.319288020792314 25.511656296763014 13.319288020792314 24.568913916673228V19.634677482869968H15.546585807671104V24.613018823344095Q15.546585807671104 25.467551390092147 15.598960384342758 25.627431676774037Q15.651334961014413 25.78731196345593 15.882885721036466 25.78731196345593Q16.130975821060094 25.78731196345593 16.17783728439789 25.621918563440182Q16.224698747735687 25.45652516342443 16.224698747735687 24.55788769000551V19.634677482869968Z" />
<path d="M21.517287548239743 19.634677482869968 21.478695754902734 20.307277309600693Q21.721272741592504 19.90482003622903 22.071355438292514 19.7035913995432Q22.42143813499252 19.502362762857366 22.879026541702764 19.502362762857366Q23.452390328424038 19.502362762857366 23.816255808458692 19.772505316216428Q24.180121288493346 20.04264786957549 24.284870441836656 20.45337481294794Q24.389619595179965 20.864101756320387 24.389619595179965 21.82338347641175V26.950578876900053H22.162321808301176V21.88402772308419Q22.162321808301176 21.12873119634559 22.11270378829645 20.96333779632984Q22.063085768291725 20.797944396314087 21.83704812160353 20.797944396314087Q21.59998424824762 20.797944396314087 21.539340001575177 20.988146806332203Q21.478695754902734 21.178349216350316 21.478695754902734 22.005316216429076V26.950578876900053H19.251397968023944V19.634677482869968Z" />
<path d="M30.20044104906671 23.42218634323068H27.317082775458772V25.00444987004804Q27.317082775458772 25.500630070095298 27.38875324879893 25.643971016775616Q27.46042372213909 25.78731196345593 27.66440891549185 25.78731196345593Q27.918012128849337 25.78731196345593 28.003465385524144 25.597109553437818Q28.088918642198948 25.406907143419705 28.088918642198948 24.861108923367723V23.896314089942504H30.20044104906671V24.436599196660627Q30.20044104906671 25.11471213672521 30.114987792391908 25.478577616759864Q30.0295345357171 25.842443096794515 29.715287075687172 26.255926596833895Q29.401039615657243 26.669410096873275 28.91864219894463 26.876151846892967Q28.436244782232023 27.082893596912655 27.70851382216272 27.082893596912655Q27.002835315428843 27.082893596912655 26.462550208710724 26.878908403559894Q25.9222651019926 26.674923210207133 25.621800425297316 26.319327400173265Q25.321335748602035 25.9637315901394 25.20556036859101 25.536465306765376Q25.089784988579982 25.10919902339135 25.089784988579982 24.29325824998031V22.15968338977711Q25.089784988579982 21.20040166968575 25.348901315271327 20.646333779632982Q25.60801764196267 20.092265889580215 26.19792076868552 19.79731432621879Q26.787823895408366 19.502362762857366 27.554146648814683 19.502362762857366Q28.491375915570607 19.502362762857366 29.100574938961962 19.857958572891235Q29.709773962353314 20.2135543829251 29.95510750571001 20.800700952981018Q30.20044104906671 21.387847523036935 30.20044104906671 22.451878396471606ZM27.967630148854063 22.23135386311727V21.696581869733006Q27.967630148854063 21.12873119634559 27.90698590218162 20.96333779632984Q27.84634165550918 20.797944396314087 27.658895802157993 20.797944396314087Q27.42734504213594 20.797944396314087 27.372213908797356 20.938528786327474Q27.317082775458772 21.079113176340865 27.317082775458772 21.696581869733006V22.23135386311727Z" />
<path d="" />
<path d="M37.96290462313932 23.42218634323068H35.079546349531384V25.00444987004804Q35.079546349531384 25.500630070095298 35.15121682287155 25.643971016775616Q35.2228872962117 25.78731196345593 35.42687248956447 25.78731196345593Q35.68047570292195 25.78731196345593 35.765928959596756 25.597109553437818Q35.85138221627156 25.406907143419705 35.85138221627156 24.861108923367723V23.896314089942504H37.96290462313932V24.436599196660627Q37.96290462313932 25.11471213672521 37.87745136646452 25.478577616759864Q37.791998109789716 25.842443096794515 37.477750649759784 26.255926596833895Q37.16350318972986 26.669410096873275 36.68110577301725 26.876151846892967Q36.19870835630464 27.082893596912655 35.470977396235334 27.082893596912655Q34.76529888950146 27.082893596912655 34.225013782783336 26.878908403559894Q33.68472867606521 26.674923210207133 33.384263999369935 26.319327400173265Q33.08379932267465 25.9637315901394 32.96802394266362 25.536465306765376Q32.8522485626526 25.10919902339135 32.8522485626526 24.29325824998031V22.15968338977711Q32.8522485626526 21.20040166968575 33.111364889343946 20.646333779632982Q33.37048121603529 20.092265889580215 33.96038434275813 19.79731432621879Q34.550287469480985 19.502362762857366 35.3166102228873 19.502362762857366Q36.25383948964323 19.502362762857366 36.86303851303458 19.857958572891235Q37.47223753642593 20.2135543829251 37.71757107978263 20.800700952981018Q37.96290462313932 21.387847523036935 37.96290462313932 22.451878396471606ZM35.730093722926675 22.23135386311727V21.696581869733006Q35.730093722926675 21.12873119634559 35.66944947625423 20.96333779632984Q35.60880522958179 20.797944396314087 35.421359376230605 20.797944396314087Q35.18980861620855 20.797944396314087 35.13467748286997 20.938528786327474Q35.079546349531384 21.079113176340865 35.079546349531384 21.696581869733006V22.23135386311727ZM37.290304796408606 17.649956682680948 35.476490509569196 19.144010396156574H34.35732850279594L35.327636449555015 17.649956682680948Z" />
<path d="M41.0392218634323 18.658856422777035V19.811097109553437H41.64015121682287V20.9688509096637H41.0392218634323V24.883161376703157Q41.0392218634323 25.605379223438607 41.11364889343939 25.688075923446483Q41.18807592344648 25.770772623454356 41.73387414349846 25.770772623454356V26.950578876900053H40.835236670079546Q40.07442703000709 26.950578876900053 39.749153343309445 26.887178073560683Q39.423879656611795 26.82377727022131 39.17578955658817 26.594983066866185Q38.92769945656454 26.366188863511063 38.8670552098921 26.07123730014964Q38.806410963219655 25.776285736788214 38.806410963219655 24.684689296684255V20.9688509096637H38.32677010317398V19.811097109553437H38.806410963219655V18.658856422777035Z" />
<path d="M44.42427345042135 18.024848389383315V19.188115302827438H42.130818303536266V18.024848389383315ZM44.42427345042135 19.634677482869968V26.950578876900053H42.130818303536266V19.634677482869968Z" />
<path d="M50.27368669764511 19.634677482869968V27.99255729699929H48.04638891076632V26.360675750177204Q47.721115224068676 26.834803496889027 47.44821611404269 26.95884854690084Q47.1753170040167 27.082893596912655 46.77285973064503 27.082893596912655Q46.18846971725604 27.082893596912655 45.805308340552884 26.807237930219735Q45.42214696384973 26.531582263526815 45.289832243837125 26.093289753485074Q45.157517523824524 25.654997243443333 45.157517523824524 24.750846656690555V21.525675356383395Q45.157517523824524 20.781405056312515 45.256753563833975 20.41478301961093Q45.355989603843426 20.048160982909348 45.73363786721272 19.775261872883355Q46.11128613058202 19.502362762857366 46.62951878396471 19.502362762857366Q47.04851539733795 19.502362762857366 47.40135465070489 19.689808616208552Q47.754193904071826 19.877254469559738 48.04638891076632 20.257659289595967L48.08498070410333 19.634677482869968ZM48.04638891076632 21.624911396392847Q48.04638891076632 21.139757423013307 47.97196188075923 20.968850909663697Q47.897534850752145 20.797944396314087 47.7045758840671 20.797944396314087Q47.51713003071591 20.797944396314087 47.45097267070962 20.946798456328263Q47.38481531070332 21.09565251634244 47.38481531070332 21.624911396392847V24.883161376703157Q47.38481531070332 25.473064503426006 47.45097267070962 25.63018823344097Q47.51713003071591 25.78731196345593 47.721115224068676 25.78731196345593Q47.914074190753716 25.78731196345593 47.98023155076002 25.62467512010711Q48.04638891076632 25.46203827675829 48.04638891076632 24.916240056706307Z" />
<path d="M56.172717964873584 19.634677482869968V26.950578876900053H53.906828384657786L53.9454201779948 26.34413641017563Q53.713869417972745 26.713515003544142 53.374812947940455 26.8982043002284Q53.035756477908166 27.082893596912655 52.594707411199494 27.082893596912655Q52.093014097818376 27.082893596912655 51.76222729778687 26.906473970229186Q51.43144049775537 26.730054343545717 51.2743167677404 26.437859336851222Q51.11719303772544 26.145664330156727 51.07860124438844 25.82866031345987Q51.040009451051425 25.511656296763014 51.040009451051425 24.568913916673228V19.634677482869968H53.26730723793021V24.613018823344095Q53.26730723793021 25.467551390092147 53.319681814601864 25.627431676774037Q53.372056391273524 25.78731196345593 53.60360715129558 25.78731196345593Q53.8516972513192 25.78731196345593 53.898558714657 25.621918563440182Q53.9454201779948 25.45652516342443 53.9454201779948 24.55788769000551V19.634677482869968Z" />
<path d="M62.01661809876348 23.42218634323068H59.13325982515555V25.00444987004804Q59.13325982515555 25.500630070095298 59.204930298495704 25.643971016775616Q59.27660077183586 25.78731196345593 59.480585965188624 25.78731196345593Q59.73418917854611 25.78731196345593 59.81964243522091 25.597109553437818Q59.90509569189572 25.406907143419705 59.90509569189572 24.861108923367723V23.896314089942504H62.01661809876348V24.436599196660627Q62.01661809876348 25.11471213672521 61.93116484208868 25.478577616759864Q61.84571158541387 25.842443096794515 61.53146412538395 26.255926596833895Q61.217216665354016 26.669410096873275 60.73481924864141 26.876151846892967Q60.2524218319288 27.082893596912655 59.52469087185949 27.082893596912655Q58.819012365125616 27.082893596912655 58.27872725840749 26.878908403559894Q57.73844215168937 26.674923210207133 57.437977474994085 26.319327400173265Q57.13751279829881 25.9637315901394 57.021737418287785 25.536465306765376Q56.905962038276755 25.10919902339135 56.905962038276755 24.29325824998031V22.15968338977711Q56.905962038276755 21.20040166968575 57.165078364968096 20.646333779632982Q57.424194691659444 20.092265889580215 58.0140978183823 19.79731432621879Q58.60400094510514 19.502362762857366 59.370323698511456 19.502362762857366Q60.307552965267384 19.502362762857366 60.91675198865873 19.857958572891235Q61.525951012050086 20.2135543829251 61.77128455540678 20.800700952981018Q62.01661809876348 21.387847523036935 62.01661809876348 22.451878396471606ZM59.78380719855083 22.23135386311727V21.696581869733006Q59.78380719855083 21.12873119634559 59.72316295187839 20.96333779632984Q59.66251870520595 20.797944396314087 59.47507285185476 20.797944396314087Q59.24352209183271 20.797944396314087 59.188390958494125 20.938528786327474Q59.13325982515555 21.079113176340865 59.13325982515555 21.696581869733006V22.23135386311727Z" />
<path d="M65.09293533905647 18.658856422777035V19.811097109553437H65.69386469244702V20.9688509096637H65.09293533905647V24.883161376703157Q65.09293533905647 25.605379223438607 65.16736236906355 25.688075923446483Q65.24178939907064 25.770772623454356 65.78758761912262 25.770772623454356V26.950578876900053H64.8889501457037Q64.12814050563125 26.950578876900053 63.8028668189336 26.887178073560683Q63.47759313223595 26.82377727022131 63.22950303221232 26.594983066866185Q62.9814129321887 26.366188863511063 62.92076868551625 26.07123730014964Q62.86012443884381 25.776285736788214 62.86012443884381 24.684689296684255V20.9688509096637H62.380483578798135V19.811097109553437H62.86012443884381V18.658856422777035Z" />
<path d="M68.5331180593841 18.658856422777035V19.811097109553437H69.13404741277466V20.9688509096637H68.5331180593841V24.883161376703157Q68.5331180593841 25.605379223438607 68.60754508939118 25.688075923446483Q68.68197211939827 25.770772623454356 69.22777033945026 25.770772623454356V26.950578876900053H68.32913286603133Q67.56832322595888 26.950578876900053 67.24304953926124 26.887178073560683Q66.9177758525636 26.82377727022131 66.66968575253996 26.594983066866185Q66.42159565251633 26.366188863511063 66.36095140584389 26.07123730014964Q66.30030715917145 25.776285736788214 66.30030715917145 24.684689296684255V20.9688509096637H65.82066629912576V19.811097109553437H66.30030715917145V18.658856422777035Z" />
<path d="M74.6692131999685 23.42218634323068H71.78585492636056V25.00444987004804Q71.78585492636056 25.500630070095298 71.8575253997007 25.643971016775616Q71.92919587304087 25.78731196345593 72.13318106639363 25.78731196345593Q72.38678427975111 25.78731196345593 72.47223753642592 25.597109553437818Q72.55769079310073 25.406907143419705 72.55769079310073 24.861108923367723V23.896314089942504H74.6692131999685V24.436599196660627Q74.6692131999685 25.11471213672521 74.5837599432937 25.478577616759864Q74.49830668661889 25.842443096794515 74.18405922658896 26.255926596833895Q73.86981176655902 26.669410096873275 73.38741434984641 26.876151846892967Q72.90501693313381 27.082893596912655 72.1772859730645 27.082893596912655Q71.47160746633062 27.082893596912655 70.9313223596125 26.878908403559894Q70.39103725289438 26.674923210207133 70.0905725761991 26.319327400173265Q69.79010789950381 25.9637315901394 69.6743325194928 25.536465306765376Q69.55855713948176 25.10919902339135 69.55855713948176 24.29325824998031V22.15968338977711Q69.55855713948176 21.20040166968575 69.8176734661731 20.646333779632982Q70.07678979286445 20.092265889580215 70.66669291958729 19.79731432621879Q71.25659604631015 19.502362762857366 72.02291879971646 19.502362762857366Q72.96014806647239 19.502362762857366 73.56934708986374 19.857958572891235Q74.1785461132551 20.2135543829251 74.4238796566118 20.800700952981018Q74.6692131999685 21.387847523036935 74.6692131999685 22.451878396471606ZM72.43640229975584 22.23135386311727V21.696581869733006Q72.43640229975584 21.12873119634559 72.3757580530834 20.96333779632984Q72.31511380641096 20.797944396314087 72.12766795305977 20.797944396314087Q71.89611719303772 20.797944396314087 71.84098605969913 20.938528786327474Q71.78585492636056 21.079113176340865 71.78585492636056 21.696581869733006V22.23135386311727Z" />
</g>
<rect x="5.0" y="5.0" width="70" height="25" stroke="black" fill="transparent" stroke-width="0.1" transform="translate(0, 0)" />
<rect x="3.0" y="3.0" width="74" height="29" stroke="black" fill="transparent" stroke-width="0.1" transform="translate(0, 0)" />
</svg>
