<?xml version="1.0" encoding="UTF-8" standalone="no"?>
<svg
   width="1000"
   height="437.401"
   viewBox="0 0 1000 437.401"
   version="1.1"
   xmlns="http://www.w3.org/2000/svg"
   xmlns:svg="http://www.w3.org/2000/svg">
  <path d="M 138.00804,436.37333 C 84.639966,426.53991 41.056215,393.93291 17.373914,346.12135 8.3996815,328.00352 3.2135639,310.03893 0.94485484,289.21144 0.3730591,283.96222 0,256.08926 0,218.61755 0,151.84935 0.37342878,144.73182 4.8394629,126.38038 19.290139,67.000854 66.023653,19.793308 125.17204,4.8271896 c 20.17795,-5.10555241 -2.93562,-4.80833875 375.33549,-4.82611384 316.80159,-0.01519237 349.1082,0.11444932 358.19562,1.43532574 54.92009,7.98223 102.6197,43.0563785 126.23524,92.8225265 4.80306,10.121572 10.32053,26.593602 13.00354,38.820892 L 1000,142.45899 v 76.81998 76.81999 l -2.05807,9.37922 c -7.9375,36.17372 -25.60698,66.83778 -52.43051,90.98947 -20.53164,18.48661 -46.63813,31.86304 -75.63568,38.75425 l -8.33034,1.97972 -358.64229,0.16214 c -289.53448,0.13077 -359.84714,-0.0601 -364.89507,-0.9902 z m 712.50027,-14.82247 c 71.03017,-7.24751 125.69994,-61.91598 132.91914,-132.91587 1.19044,-11.7073 1.21659,-125.86885 0.0302,-138.1367 C 976.89847,82.588593 925.40962,28.047937 858.65368,18.297364 c -8.3794,-1.223898 -22.36286,-1.371669 -108.7671,-1.149303 l -99.15137,0.255231 -9.32432,2.098524 C 582.90622,32.668954 538.8782,76.522172 526.98547,133.4729 c -3.00862,14.40714 -3.51054,27.49867 -3.52509,91.94431 -0.0151,67.61015 -0.28725,72.41935 -5.02466,88.82474 -7.50138,25.97777 -19.80393,46.77837 -38.66721,65.3766 -11.67345,11.50942 -23.08592,19.72603 -37.16198,26.75535 -15.9538,7.96702 -27.27519,11.35725 -50.46894,15.11312 -7.3683,1.1932 446.6809,1.25651 458.36901,0.0639 z M 599.3748,216.15259 V 101.81587 h 85.75256 85.75257 v 23.22465 23.22464 H 710.1385 649.39707 v 23.22465 23.22465 h 57.18346 57.1835 l -0.23849,23.00132 -0.23849,23.00132 -56.94505,0.22991 -56.94512,0.22991 v 44.65619 44.65624 h -25.0111 -25.01117 z m 205.66726,35.95353 0.22829,-78.38318 23.44792,-0.238 23.448,-0.23803 v 78.62135 78.62139 H 828.4901 804.81397 Z m 16.30681,-101.45428 c -11.89266,-3.9326 -19.102,-13.08778 -19.90121,-25.27274 -0.55155,-8.40827 1.33742,-14.0569 6.69248,-20.01302 5.18003,-5.761411 11.49661,-9.013895 18.61535,-9.585333 13.86912,-1.113249 25.47817,7.046733 29.44679,20.698153 3.71327,12.77315 -2.94966,26.82656 -15.52041,32.73549 -4.95749,2.3303 -14.48957,3.03903 -19.333,1.43745 z m -633.9279,176.93445 c 5.0639,-18.05022 44.28876,-152.36087 44.7398,-153.19458 0.3326,-0.61473 10.84985,34.15526 23.37168,77.26664 l 22.76695,78.38439 20.56317,0.23955 20.56315,0.23955 29.76264,-113.21405 c 16.36944,-62.26776 29.9593,-113.72649 30.19956,-114.35282 0.34734,-0.90475 -4.33447,-1.13867 -22.78937,-1.13867 h -23.22632 l -1.26031,5.58285 c -8.79345,38.95256 -33.42943,143.34363 -33.7785,143.13119 -0.25319,-0.15447 -10.10151,-33.67883 -21.88478,-74.49914 l -21.42407,-74.21875 -21.36936,0.22538 -21.36936,0.22533 -21.50693,72.56566 c -14.07829,47.50101 -21.73723,72.02962 -22.17369,71.01381 -0.36673,-0.85351 -7.84749,-33.41843 -16.62393,-72.36654 -8.77643,-38.94816 -16.15369,-71.01133 -16.39389,-71.25152 -0.24019,-0.24003 -11.48029,-0.32969 -24.97795,-0.19903 l -24.541215,0.23751 30.436185,114.10877 30.43617,114.10883 19.83296,0.005 19.83295,0.005 z m 267.2463,-75.7035 v -78.60645 h -23.67126 -23.67129 v 78.60645 78.60661 h 23.67129 23.67126 z M 440.57194,150.37387 c 5.69873,-1.81296 12.51273,-8.11436 15.60181,-14.42816 3.23006,-6.60195 3.45838,-16.20971 0.53885,-22.67443 -2.6561,-5.88158 -8.51857,-11.88794 -14.42449,-14.77859 -7.09225,-3.471311 -16.44741,-3.438493 -23.64477,0.08255 -16.86584,8.2517 -21.45014,30.38898 -9.13069,44.09119 8.07537,8.98168 18.73678,11.62729 31.05929,7.70715 z" />
</svg>
